<svg id="Layer_1" data-name="Layer 1" xmlns="http://www.w3.org/2000/svg" viewBox="0 0 117.94 81.42"><defs><style>.cls-1{fill:#055282;}.cls-2{fill:#93969a;}.cls-3{fill:#333;}</style></defs><path class="cls-1" d="M39,7.91l-7.54,7.56a1,1,0,0,0-.32.78V34.72a1,1,0,0,1-.29.69l-2.1,2.1a.21.21,0,0,1-.35-.15q-.08-10.89,0-21.89a2.11,2.11,0,0,1,.83-1.59Q35.43,7.64,41.67,1.49c.07-.07.11-.06.11,0v18a.41.41,0,0,0,.11.28L53.14,31a.34.34,0,0,1,.11.25v4.23a.14.14,0,0,1-.12.17H50.83a.24.24,0,0,1-.24-.24h0l0-2.9a.4.4,0,0,0-.12-.29l-8.56-8.61c-.12-.12-.18-.1-.18.07l.06,6.78q0,.21-.15.06l-2.46-2.34a.36.36,0,0,1-.13-.3V8c0-.09,0-.1-.09,0Z" transform="translate(-0.86 -1.44)"/><path class="cls-1" d="M49.41,16.09l0,8.19c0,.39-.14.44-.41.17L46.7,22.12a.38.38,0,0,1-.12-.28V9.59c0-.12,0-.14.12-.05L60.23,23a.77.77,0,0,1,.22.54V48.15a.25.25,0,0,1-.25.25h0a2.58,2.58,0,0,1-2-1.11,2.72,2.72,0,0,1-.38-1.56q-.08-10.68-.1-21.37a.31.31,0,0,0-.09-.22L49.54,16C49.45,16,49.41,16,49.41,16.09Z" transform="translate(-0.86 -1.44)"/><path class="cls-1" d="M26.75,23.79v3.45a.06.06,0,0,1,0,.06l-3.28,3.29a.09.09,0,0,0,0,.07V42.81a.09.09,0,0,1,0,.06l-2.45,2.5a.1.1,0,0,1-.13,0,.09.09,0,0,1,0-.06l0-15.69a.14.14,0,0,1,0-.06l5.8-5.83a.07.07,0,0,1,.12,0,.07.07,0,0,1,0,.06Z" transform="translate(-0.86 -1.44)"/><path class="cls-1" d="M49.88,41.07v-3.3a.38.38,0,0,1,.42-.36c1.1,0,2.13,0,3.18,0,.1,0,.15,0,.15.13V45a.36.36,0,0,0,.11.26l4.73,4.71a.74.74,0,0,0,.51.21l10.26,0a.23.23,0,0,1,.23.23h0l0,3.37a.12.12,0,0,1-.11.14H57.68a1.19,1.19,0,0,1-.85-.35l-18-18a.36.36,0,0,0-.57,0L20,53.8a.39.39,0,0,1-.27.11H8a.14.14,0,0,1-.16-.12v0l0-3.42a.14.14,0,0,1,.11-.16H8q5.07,0,10.12,0a1.36,1.36,0,0,0,1-.46Q28.82,40,38.28,30.45a.49.49,0,0,1,.77,0L49.67,41.16a.12.12,0,0,0,.17,0,.12.12,0,0,0,0-.09Z" transform="translate(-0.86 -1.44)"/><path class="cls-2" d="M38.78,37.69,49.09,48c.09.09.07.12-.05.09a.37.37,0,0,1-.19-.09l-10.06-8.9a.22.22,0,0,0-.33,0q-5.12,4.55-10.22,9a.32.32,0,0,1-.17,0,.3.3,0,0,1,.07-.29l10.3-10.16A.25.25,0,0,1,38.78,37.69Z" transform="translate(-0.86 -1.44)"/><path class="cls-3" d="M101.93,41.18a.28.28,0,0,1-.28.28H97.33a.27.27,0,0,1-.28-.28V18.41a.27.27,0,0,1,.28-.27h4.32a.28.28,0,0,1,.28.27V41.18Z" transform="translate(-0.86 -1.44)"/><path class="cls-3" d="M113.4,23.42a.19.19,0,0,1-.19.19h-4.58a.18.18,0,0,1-.18-.19V19.74a.18.18,0,0,1,.18-.18h4.58a.2.2,0,0,1,.19.19h0Z" transform="translate(-0.86 -1.44)"/><path class="cls-3" d="M80.26,25.3a.3.3,0,0,1-.3.31l-3.55,0a.31.31,0,0,1-.32-.3h0l0-3.5a.32.32,0,0,1,.31-.31l3.55,0a.3.3,0,0,1,.31.3h0Z" transform="translate(-0.86 -1.44)"/><path class="cls-3" d="M85.57,25.33a.3.3,0,0,1-.29.29H81.65a.29.29,0,0,1-.29-.29V21.81a.29.29,0,0,1,.29-.29h3.63a.29.29,0,0,1,.29.29Z" transform="translate(-0.86 -1.44)"/><path class="cls-3" d="M106.26,26.85a.33.33,0,0,1,.37-.38c2.13,0,4.23,0,6.32,0,6.17.08,6,5.36,5.73,9.86-.2,2.83-1.13,5.07-4.24,5.1s-6.17,0-9.23,0a.28.28,0,0,1-.28-.28V37.49a.15.15,0,0,1,.14-.15c2.3-.08,4.57-.1,6.83-.08s1.9-3,1.78-4.41c-.24-2.89-4.42-2.34-7.1-2.22a.19.19,0,0,1-.21-.18h0l-.1-3.59Z" transform="translate(-0.86 -1.44)"/><path class="cls-3" d="M88.88,35.83V27.29a.22.22,0,0,1,.22-.23h4.5c.17,0,.25.08.24.25-.17,2.39,0,5.21,0,7.12,0,2.13.43,5.47-1.78,6.6a8,8,0,0,1-3.11.43H71.63c-2.41,0-3.65-1.24-3.71-3.74q-.09-4.15,0-8.34a.13.13,0,0,1,.12-.15h0l4.53,0a.19.19,0,0,1,.18.17c0,2,0,4.06,0,6.08,0,1.43.45,1.81,1.88,1.81H87.45a1.26,1.26,0,0,0,1.43-1.42Z" transform="translate(-0.86 -1.44)"/><path class="cls-3" d="M45.91,75c.18,6-2.62,8.23-8.37,7.76a.21.21,0,0,1-.19-.21V78.81a.19.19,0,0,1,.17-.2h0c.41,0,.8-.07,1.17-.08,1.9,0,2.23-1.35,2.25-3Q41,68.51,41,61.44a.09.09,0,0,1,.1-.1h4.6a.12.12,0,0,1,.14.11v0Q46,65.4,46,69.3a2,2,0,0,0,2.19,2.22q8.55,0,17.1,0c1.08,0,1.11-1.9,1.12-2.69,0-2.44,0-4.87,0-7.28a.24.24,0,0,1,.24-.24h4.48a.15.15,0,0,1,.15.15c0,2.36,0,4.71,0,7.05,0,1.61.26,3,2.1,3q8.69.12,30,0c1.1,0,1.7-.42,1.7-1.55q0-8.72,0-17.4a.17.17,0,0,1,.16-.17h4.56a.12.12,0,0,1,.14.11v0q.07,13.85,0,19.49c0,3.23-2.07,3.69-4.92,3.69H74a3.78,3.78,0,0,1-3.07-1.41c-.07-.08-.13-.08-.2,0a4.26,4.26,0,0,1-3.41,1.4q-9.49,0-19,0a3.9,3.9,0,0,1-2.16-.84.14.14,0,0,0-.2,0,.15.15,0,0,0,0,.09Z" transform="translate(-0.86 -1.44)"/><path class="cls-3" d="M118.43,75.53a.2.2,0,0,1-.2.2h-4.47a.19.19,0,0,1-.2-.2h0V52.61a.19.19,0,0,1,.2-.2h4.46a.21.21,0,0,1,.21.2h0V75.53Z" transform="translate(-0.86 -1.44)"/><path class="cls-3" d="M5.9,66.47,3.67,63.78a.17.17,0,0,1,0-.22l0,0a9.08,9.08,0,0,1,9.53-2.42c3.7,1.06,5,4,5.21,7.6.23,3.31-.73,6.91-4.79,7-1.37,0-6.43-.25-7.34.43a1.36,1.36,0,0,0,.54,2.38,16.92,16.92,0,0,0,3,.08.33.33,0,0,1,.35.31v3.68a.16.16,0,0,1-.14.18h0C5.09,83.2.25,82.6.92,76.1c.56-5.42,5.93-4.41,9.81-4.54,1.62,0,2.56-.24,2.61-2,.13-5.23-3.71-5.62-7.09-3a.26.26,0,0,1-.36,0Z" transform="translate(-0.86 -1.44)"/><path class="cls-3" d="M31,75.71c-5.85.37-10.41-.74-10-7.85.33-5.14,4-7.78,9.11-7,4,.59,5.66,3,5.85,6.88q.2,4.08.08,8.16c-.11,4-1.29,6.71-5.76,6.89q-3.06.12-6.14,0a.22.22,0,0,1-.22-.24V78.8a.22.22,0,0,1,.22-.21h4.56c1.64,0,2.49-.86,2.56-2.58,0-.21-.1-.31-.31-.3m-5.15-6.26c.32,2.52,3.58,2.19,5.29,2.16a.11.11,0,0,0,.12-.09v0c.11-1.45.43-5.6-1.3-6.28-3.24-1.29-4.45,1.62-4.11,4.23Z" transform="translate(-0.86 -1.44)"/><path class="cls-3" d="M15.75,82.4a.31.31,0,0,1-.3.3h-3.9a.29.29,0,0,1-.3-.3h0V78.88a.31.31,0,0,1,.3-.3h3.9a.29.29,0,0,1,.3.3h0Z" transform="translate(-0.86 -1.44)"/><path class="cls-3" d="M71.25,82.5a.29.29,0,0,1-.29.29h0l-4.38,0a.29.29,0,0,1-.28-.28V78.94a.29.29,0,0,1,.28-.29h0l4.37,0a.29.29,0,0,1,.29.29V82.5Z" transform="translate(-0.86 -1.44)"/></svg>