<svg id="Layer_1" data-name="Layer 1" xmlns="http://www.w3.org/2000/svg" viewBox="0 0 2348.57 1621.21"><defs><style>.cls-1{fill:#fff;}</style></defs><path class="cls-1" d="M805.79,133.69,655.67,284.17a21.17,21.17,0,0,0-6.39,15.55V667.57a19.65,19.65,0,0,1-5.74,13.8l-41.82,41.7a4.09,4.09,0,0,1-7-2.87q-1.35-216.94-.55-435.91c0-14.63,7.11-22.22,16.61-31.72Q734.9,128.48,859.24,5.8c1.43-1.38,2.15-1.07,2.15,1v358a7.46,7.46,0,0,0,2.21,5.44l224,224a7,7,0,0,1,2.09,5.07l.36,84.23a2.89,2.89,0,0,1-2.42,3.29,3.1,3.1,0,0,1-.86,0h-45.1a4.81,4.81,0,0,1-4.81-4.81v-.09l.54-57.7a7.57,7.57,0,0,0-2.33-5.79L864.57,446.9c-2.41-2.4-3.61-2-3.61,1.5l1.2,134.89c0,2.75-1,3.16-3,1.2l-49-46.6a7.91,7.91,0,0,1-2.57-6V134.41c0-1.74-.58-2-1.78-.72Z" transform="translate(-46.53 -4.96)"/><path class="cls-1" d="M1013.27,296.53l.64,163.07c0,7.77-2.7,8.9-8.19,3.4l-46.39-46.4a7.65,7.65,0,0,1-2.27-5.43l-.36-244c0-2.4.84-2.75,2.57-1L1228.81,435a15.19,15.19,0,0,1,4.43,10.69V935a5.08,5.08,0,0,1-5.07,5.1,4.16,4.16,0,0,1-.61,0c-16.83-1.85-29.75-9.2-38.71-22.17q-7.51-10.82-7.7-31-1.35-212.77-2-425.55a6,6,0,0,0-1.8-4.37L1015.91,295.45C1014.16,293.73,1013.27,294.08,1013.27,296.53Z" transform="translate(-46.53 -4.96)"/><path class="cls-1" d="M562.12,449.87l-.21,68.83a1.69,1.69,0,0,1-.55,1.2L496,585.43a1.66,1.66,0,0,0-.54,1.2v242a1.71,1.71,0,0,1-.55,1.21L446,879.61a1.79,1.79,0,0,1-2.53,0,1.77,1.77,0,0,1-.51-1.17l.24-312.31a1.68,1.68,0,0,1,.54-1.21l115.4-116.24a1.78,1.78,0,0,1,2.52,0,1.74,1.74,0,0,1,.52,1.27Z" transform="translate(-46.53 -4.96)"/><path class="cls-1" d="M1022.65,794.08V728.37c0-4.48,3.89-7.31,8.41-7.21,21.93.37,42.46.34,63.38.42,2,0,2.92.6,2.92,2.57V871.51a7,7,0,0,0,2.15,5.13l94.15,93.77a14.56,14.56,0,0,0,10.28,4.24l204.36.6a4.56,4.56,0,0,1,4.55,4.57v0l-.55,67a2.57,2.57,0,0,1-2.16,2.92,2.42,2.42,0,0,1-.76,0H1178a23.75,23.75,0,0,1-16.83-7L803.53,683.41c-3.76-3.76-7.52-3.76-11.34,0l-363.88,364a7.36,7.36,0,0,1-5.43,2.27H188.76a2.81,2.81,0,0,1-3.16-2.41,3.14,3.14,0,0,1,0-.75l-.66-68.16a2.76,2.76,0,0,1,2.31-3.15,2.62,2.62,0,0,1,.79,0q100.8-.63,201.38,0,10.14.09,19.36-9.14,194.34-193.65,383-383.48c5.08-5.13,10.22-5.13,15.29,0l211.47,213.26a2.4,2.4,0,0,0,3.4.07,2.43,2.43,0,0,0,.74-1.81Z" transform="translate(-46.53 -4.96)"/><path class="cls-1" d="M801.73,726.7,1007,931.3c1.74,1.67,1.37,2.28-1,1.79a8,8,0,0,1-3.76-1.91L801.79,754c-2.15-1.91-4.3-1.91-6.51,0q-102,90.42-203.41,180.22a5.84,5.84,0,0,1-3.4.49,5.47,5.47,0,0,1,1.37-5.74L795,726.7A4.8,4.8,0,0,1,801.73,726.7Z" transform="translate(-46.53 -4.96)"/><path class="cls-1" d="M2059.09,796.29a5.6,5.6,0,0,1-5.56,5.56h-86a5.6,5.6,0,0,1-5.56-5.56V342.88a5.6,5.6,0,0,1,5.56-5.55h86a5.6,5.6,0,0,1,5.56,5.55V796.29Z" transform="translate(-46.53 -4.96)"/><path class="cls-1" d="M2287.53,442.61a3.72,3.72,0,0,1-3.72,3.71l-91.15-.16a3.72,3.72,0,0,1-3.71-3.72l.14-73.11a3.7,3.7,0,0,1,3.71-3.7l91.16.16a3.7,3.7,0,0,1,3.7,3.7h0Z" transform="translate(-46.53 -4.96)"/><path class="cls-1" d="M1627.73,479.94a6.17,6.17,0,0,1-6.11,6.19l-70.73.49a6.1,6.1,0,0,1-6.19-6v-.08l-.49-69.53a6.18,6.18,0,0,1,6.11-6.2l70.73-.49a6.1,6.1,0,0,1,6.19,6,.28.28,0,0,1,0,.09Z" transform="translate(-46.53 -4.96)"/><path class="cls-1" d="M1733.29,480.52a5.74,5.74,0,0,1-5.73,5.74l-72.28.12a5.75,5.75,0,0,1-5.75-5.72l-.12-70.25a5.75,5.75,0,0,1,5.72-5.75l72.29-.12a5.76,5.76,0,0,1,5.75,5.72Z" transform="translate(-46.53 -4.96)"/><path class="cls-1" d="M2145.47,510.87c-.18-5.07,2.27-7.59,7.35-7.65q63.43-.44,125.74.31c122.88,1.55,120.49,106.68,114.2,196.23-4,56.5-22.51,101.08-84.53,101.62q-92.3.81-183.7.3a5.71,5.71,0,0,1-5.67-5.68V722.77a3,3,0,0,1,2.92-3q68.52-2.34,136-1.61c45.22.54,37.7-59.56,35.37-87.76-4.81-57.7-88.06-46.65-141.34-44.26a3.91,3.91,0,0,1-4.12-3.68v-.08l-2.13-71.53Z" transform="translate(-46.53 -4.96)"/><path class="cls-1" d="M1799.23,689.72V519.53a4.53,4.53,0,0,1,4.49-4.49h89.6c3.35,0,4.9,1.67,4.67,5-3.34,47.68.12,103.71-.54,141.86-.78,42.41,8.67,109-35.37,131.3q-16.74,8.52-62,8.55-172.23.09-344.33.12-72,0-73.78-74.43-2-82.95-.54-166.08a2.77,2.77,0,0,1,2.43-3,3.1,3.1,0,0,1,.68,0l90.26-.54a3.44,3.44,0,0,1,3.41,3.4q-.29,60.66.42,121c.36,28.43,9.07,36.07,37.57,36.07q128.15-.09,254.6,0,28.41,0,28.43-28.42Z" transform="translate(-46.53 -4.96)"/><path class="cls-1" d="M943.73,1469.71c3.4,119.42-52.21,163.87-166.79,154.37a4,4,0,0,1-3.7-4.06v-74.54a3.61,3.61,0,0,1,3.25-3.93h.21q12.38-1.35,23.42-1.61c37.76-.78,44.32-26.94,44.74-59q1.7-140.65,1.73-281.3a2,2,0,0,1,2-2h91.6a2.52,2.52,0,0,1,2.86,2.16,2.32,2.32,0,0,1,0,.59q2.68,78.23,1.55,155.73c-.42,28.31,15.83,44.09,43.67,44.27q170.27,1,340.5.6c21.45,0,22.11-37.88,22.23-53.58q.46-72.94.12-144.93a4.74,4.74,0,0,1,4.67-4.81h89.27a3.06,3.06,0,0,1,3,3q.54,70.51.18,140.45c-.18,32,5,59.2,41.82,59.67q172.68,2.24,598-.24c21.86-.12,33.81-8.31,33.81-30.82q.18-173.58-.3-346.6a3.21,3.21,0,0,1,3.2-3.22h90.7a2.57,2.57,0,0,1,2.92,2.17,2.36,2.36,0,0,1,0,.75q1.44,275.64,0,388.18c-.84,64.16-41.28,73.41-98,73.41q-309.33-.08-618.4-.3-37.91,0-61.12-28.08c-1.31-1.55-2.63-1.55-3.94,0q-23.92,27.87-67.92,28-189,.63-377.84.18-19.35-.08-43-16.83a2.88,2.88,0,0,0-4.54,2.41Z" transform="translate(-46.53 -4.96)"/><path class="cls-1" d="M2387.65,1480.21a4,4,0,0,1-4,4.06h-89a4,4,0,0,1-4.06-4V1023.89a4,4,0,0,1,4-4.06h89a4,4,0,0,1,4.06,4v456.39Z" transform="translate(-46.53 -4.96)"/><path class="cls-1" d="M146.83,1299.71l-44.26-53.52a3.08,3.08,0,0,1-.16-4.35c.11-.11.22-.22.34-.32q80.37-79.85,189.73-48.32c73.78,21.2,99,80.54,103.83,151.47,4.55,65.77-14.58,137.51-95.46,138.59-27.18.36-128-5-146.06,8.42-15.47,11.46-13.56,44.56,10.64,47.49a329.88,329.88,0,0,0,60.11,1.55,6.66,6.66,0,0,1,7,6.27c0,.14,0,.28,0,.43v72.76a3.17,3.17,0,0,1-2.73,3.58,2.54,2.54,0,0,1-.55,0c-98.5,9.14-194.93-2.75-181.52-132.23,11.17-107.83,118.1-87.88,195.28-90.39,32.26-1,51-4.73,52-40.68,2.64-104.12-73.77-111.9-141.1-59.86a5.19,5.19,0,0,1-7.12-.79Z" transform="translate(-46.53 -4.96)"/><path class="cls-1" d="M646.3,1483.81c-116.43,7.41-207.24-14.69-198.21-156.27,6.51-102.39,80.47-154.9,181.3-140.21,79.75,11.65,112.67,59.74,116.49,137.05q4,81.09,1.67,162.37c-2.21,79.21-25.75,133.57-114.81,137.16q-60.84,2.4-122.17.18c-2.92-.12-4.42-1.67-4.42-4.6l.3-74.08a4.28,4.28,0,0,1,4.26-4.3h90.78q49.1.09,51-51.26c.18-4.24-1.91-6.28-6.15-6M543.73,1359.23c6.33,50,71.38,43.61,105.32,42.89a2.11,2.11,0,0,0,2.38-1.81,1.3,1.3,0,0,0,0-.34c2.33-29,8.61-111.48-25.75-125.1-64.64-25.56-88.59,32.33-82,84.36Z" transform="translate(-46.53 -4.96)"/><path class="cls-1" d="M343.12,1617a5.94,5.94,0,0,1-5.93,5.9l-77.78-.13a5.92,5.92,0,0,1-5.9-5.93h0l.12-69.89a5.94,5.94,0,0,1,5.93-5.9l77.78.13a5.92,5.92,0,0,1,5.9,5.92h0Z" transform="translate(-46.53 -4.96)"/><path class="cls-1" d="M1448.15,1619.05a5.68,5.68,0,0,1-5.66,5.71h-.1l-87.08-.3a5.77,5.77,0,0,1-5.71-5.75l.24-70.62a5.69,5.69,0,0,1,5.66-5.71h.1l87.09.3a5.77,5.77,0,0,1,5.71,5.76l-.24,70.61Z" transform="translate(-46.53 -4.96)"/></svg>