<?xml version="1.0" encoding="utf-8"?>
<!-- Generator: Adobe Illustrator 27.7.0, SVG Export Plug-In . SVG Version: 6.00 Build 0)  -->
<svg version="1.1" id="Layer_1" xmlns="http://www.w3.org/2000/svg" xmlns:xlink="http://www.w3.org/1999/xlink" x="0px" y="0px"
	 viewBox="0 0 2480 3508" style="enable-background:new 0 0 2480 3508;" xml:space="preserve">
<style type="text/css">
	.st0{display:none;fill:#542D2D;stroke:#000000;stroke-miterlimit:10;}
	.st1{fill:#055282;}
	.st2{fill:#93969A;}
	.st3{fill:#333333;}
</style>
<g>
	<rect x="-20.74" y="-8.52" class="st0" width="2521.48" height="3516.52"/>
	<g>
		<path class="st1" d="M870.01,1228.67l-124.88,125.18c-3.53,3.53-5.32,7.85-5.32,12.92v306.01c0,4.27-1.74,8.45-4.77,11.48
			l-34.79,34.69c-2.14,2.14-5.81,0.65-5.81-2.39c-0.75-120.31-0.89-241.21-0.45-362.61c0-12.17,5.91-18.49,13.81-26.39
			c68.82-68.82,137.75-137.25,206.67-205.28c1.19-1.14,1.79-0.89,1.79,0.8l-0.05,297.81c0,1.74,0.6,3.28,1.84,4.52l186.4,186.35
			c1.14,1.14,1.74,2.58,1.74,4.22l0.3,70.07c0,1.84-0.89,2.73-2.73,2.73h-37.52c-2.24,0-4.07-1.84-4.03-4.07l0.45-48
			c0.05-1.89-0.6-3.48-1.94-4.82l-141.82-142.67c-2.04-2.04-3.03-1.64-2.98,1.24l0.99,112.21c0,2.29-0.84,2.63-2.48,1.04
			l-40.8-38.76c-1.44-1.34-2.14-3.03-2.14-5.02c0-110.22,0-220.44,0-330.66C871.5,1227.82,871.01,1227.62,870.01,1228.67
			L870.01,1228.67z"/>
		<path class="st1" d="M1042.6,1364.13l0.5,135.66c0.05,6.46-2.24,7.4-6.81,2.83l-38.56-38.61c-1.19-1.19-1.89-2.78-1.89-4.52
			l-0.3-203c0-1.99,0.7-2.29,2.14-0.84l224.22,223.67c2.34,2.34,3.68,5.57,3.68,8.89v406.99c0,2.53-2.19,4.52-4.72,4.22
			c-14.01-1.54-24.75-7.65-32.2-18.44c-4.17-6.01-6.31-14.61-6.41-25.79c-0.75-118.02-1.29-235.99-1.64-354.01
			c0-1.44-0.5-2.63-1.49-3.63l-134.32-134.32C1043.34,1361.8,1042.6,1362.09,1042.6,1364.13L1042.6,1364.13z"/>
		<path class="st1" d="M667.31,1491.69l-0.15,57.25c0,0.4-0.15,0.75-0.45,1.04l-54.41,54.51c-0.3,0.3-0.45,0.65-0.45,1.04v201.26
			c0,0.4-0.15,0.75-0.45,1.04l-40.7,41.39c-0.89,0.94-2.53,0.25-2.53-1.04l0.2-259.8c0-0.4,0.15-0.75,0.45-1.04l95.96-96.7
			C665.67,1489.71,667.31,1490.35,667.31,1491.69L667.31,1491.69z"/>
		<path class="st1" d="M1050.4,1778.02v-54.66c0-3.73,3.24-6.08,6.96-6.01c18.24,0.31,35.32,0.28,52.72,0.35
			c1.65,0.01,2.43,0.5,2.43,2.14v122.59c0,1.64,0.6,3.08,1.79,4.27l78.32,77.97c2.24,2.24,5.32,3.53,8.55,3.53l170,0.5
			c2.09,0,3.78,1.69,3.78,3.83l-0.45,55.71c0,1.64-0.8,2.43-2.43,2.43H1179.6c-5.27,0-10.29-2.09-14.01-5.81l-297.46-298.9
			c-3.13-3.13-6.26-3.13-9.44,0L556,1988.77c-1.24,1.24-2.73,1.89-4.52,1.89H356.73c-1.74,0-2.63-0.89-2.63-2.63l-0.55-56.7
			c0-1.74,0.84-2.63,2.58-2.63c55.9-0.35,111.76-0.35,167.52-0.05c5.62,0.05,10.98-2.48,16.1-7.6
			c107.78-107.39,213.98-213.68,318.58-318.98c4.22-4.27,8.5-4.27,12.72,0l175.91,177.4
			C1048.21,1780.76,1050.4,1779.81,1050.4,1778.02L1050.4,1778.02z"/>
		<path class="st2" d="M866.63,1721.97l170.75,170.2c1.44,1.39,1.14,1.89-0.8,1.49c-1.19-0.25-2.24-0.8-3.13-1.59
			c-56.05-49.54-111.66-98.69-166.77-147.39c-1.79-1.59-3.58-1.59-5.42,0c-56.55,50.14-112.95,100.13-169.2,149.92
			c-0.65,0.55-2.78,0.5-2.83,0.4c-0.6-1.64-0.15-3.48,1.14-4.77l170.65-168.26C862.61,1720.43,865.09,1720.43,866.63,1721.97
			L866.63,1721.97z"/>
	</g>
	<g>
		<path class="st3" d="M1912.57,1779.86c0,2.53-2.09,4.62-4.62,4.62h-71.56c-2.53,0-4.62-2.09-4.62-4.62v-377.17
			c0-2.53,2.09-4.62,4.62-4.62h71.56c2.53,0,4.62,2.09,4.62,4.62V1779.86L1912.57,1779.86z"/>
		<path class="st3" d="M2102.6,1485.65c0,1.72-1.39,3.06-3.09,3.08l-75.83-0.13c-1.68,0.02-3.07-1.38-3.08-3.09l0.11-60.82
			c0-1.72,1.39-3.06,3.09-3.08l75.83,0.13c1.68-0.02,3.07,1.37,3.08,3.09L2102.6,1485.65L2102.6,1485.65z"/>
		<path class="st3" d="M1553.74,1516.7c0,2.83-2.24,5.11-5.08,5.15l-58.84,0.41c-2.82,0.04-5.16-2.24-5.15-5.08l-0.4-57.84
			c0-2.83,2.24-5.11,5.08-5.15l58.84-0.41c2.82-0.04,5.16,2.24,5.15,5.08L1553.74,1516.7L1553.74,1516.7z"/>
		<path class="st3" d="M1641.55,1517.18c0,2.64-2.14,4.78-4.76,4.78l-60.13,0.1c-2.64,0-4.78-2.14-4.78-4.76l-0.1-58.44
			c0-2.64,2.14-4.78,4.76-4.78l60.13-0.1c2.64,0,4.78,2.14,4.78,4.76L1641.55,1517.18L1641.55,1517.18z"/>
		<path class="st3" d="M1984.43,1542.43c-0.15-4.22,1.89-6.31,6.11-6.36c35.18-0.25,70.07-0.2,104.6,0.25
			c102.22,1.29,100.23,88.75,94.96,163.24c-3.33,46.96-18.73,84.08-70.32,84.53c-51.18,0.45-102.12,0.55-152.81,0.25
			c-2.63-0.05-4.72-2.14-4.72-4.72v-60.92c0-1.34,1.09-2.43,2.43-2.48c38.02-1.29,75.73-1.74,113.1-1.34
			c37.62,0.45,31.36-49.54,29.42-73c-4.02-48-73.25-38.81-117.57-36.82c-1.84,0.1-3.38-1.34-3.43-3.13L1984.43,1542.43
			L1984.43,1542.43z"/>
		<path class="st3" d="M1696.41,1691.21v-141.58c0-2.04,1.69-3.73,3.73-3.73h74.54c2.78,0,4.07,1.39,3.88,4.12
			c-2.78,39.66,0.1,86.27-0.45,118.02c-0.65,35.28,7.21,90.64-29.42,109.23c-9.29,4.72-26.49,7.11-51.58,7.11
			c-95.51,0.05-190.97,0.05-286.43,0.1c-39.95,0-60.43-20.62-61.37-61.92c-1.09-45.97-1.24-92.03-0.45-138.15
			c0.05-1.69,0.89-2.53,2.58-2.53l75.09-0.45c1.54,0,2.83,1.29,2.83,2.83c-0.15,33.64-0.05,67.19,0.35,100.68
			c0.3,23.65,7.55,29.96,31.26,29.96c71.06-0.05,141.67-0.05,211.79-0.05C1688.51,1714.86,1696.41,1706.96,1696.41,1691.21
			L1696.41,1691.21z"/>
	</g>
	<g>
		<path class="st3" d="M984.75,2340.05c2.83,99.34-43.43,136.31-138.74,128.41c-1.74-0.15-3.08-1.59-3.08-3.38v-62.02
			c0-1.94,0.94-3.03,2.88-3.28c6.86-0.75,13.37-1.19,19.48-1.34c31.41-0.65,36.87-22.41,37.22-49.1c0.94-78.02,1.44-156.04,1.44-234
			c0-0.94,0.75-1.69,1.69-1.69h76.18c1.54,0,2.34,0.75,2.39,2.29c1.49,43.38,1.94,86.57,1.29,129.55
			c-0.35,23.55,13.17,36.67,36.33,36.82c94.42,0.55,188.83,0.7,283.25,0.5c17.84-0.05,18.39-31.51,18.49-44.57
			c0.25-40.45,0.25-80.65,0.1-120.56c-0.05-2.24,1.74-4.03,3.98-4.03h74.14c1.39,0,2.53,1.14,2.53,2.53
			c0.3,39.11,0.35,78.07,0.15,116.83c-0.15,26.64,4.17,49.25,34.79,49.64c95.76,1.24,261.58,1.14,497.48-0.2
			c18.19-0.1,28.13-6.91,28.13-25.64c0.1-96.26,0-192.36-0.25-288.32c0-1.49,1.19-2.68,2.68-2.68h75.43c1.64,0,2.43,0.8,2.43,2.43
			c0.8,152.86,0.8,260.49,0,322.91c-0.7,53.37-34.34,61.07-81.5,61.07c-171.54-0.05-343.03-0.15-514.42-0.25
			c-21.02,0-37.97-7.8-50.84-23.36c-1.09-1.29-2.19-1.29-3.28,0c-13.27,15.45-32.1,23.26-56.5,23.31
			c-104.8,0.35-209.56,0.4-314.31,0.15c-10.73-0.05-22.66-4.72-35.78-14.01C986.94,2336.92,984.7,2338.12,984.75,2340.05
			L984.75,2340.05z"/>
		<path class="st3" d="M2185.89,2348.75c0,1.89-1.49,3.38-3.38,3.38h-73.94c-1.89,0-3.38-1.49-3.38-3.38v-379.56
			c0-1.89,1.49-3.38,3.38-3.38h73.94c1.89,0,3.38,1.49,3.38,3.38V2348.75L2185.89,2348.75z"/>
		<path class="st3" d="M321.85,2198.63l-36.82-44.52c-1.14-1.34-1.09-2.63,0.15-3.88c44.57-44.28,97.15-57.64,157.83-40.2
			c61.37,17.64,82.34,66.99,86.37,125.97c3.78,54.71-12.13,114.39-79.41,115.29c-22.61,0.3-106.44-4.17-121.5,6.96
			c-12.87,9.54-11.28,37.07,8.85,39.51c15.65,1.94,32.3,2.34,50.04,1.29c3.18-0.2,5.86,2.34,5.86,5.57v60.53
			c0,1.84-0.89,2.83-2.73,2.98c-81.94,7.6-162.15-2.29-151.02-110.02c9.29-89.7,98.24-73.1,162.45-75.19
			c26.83-0.84,42.44-3.93,43.23-33.84c2.19-86.61-61.37-93.08-117.38-49.79C325.92,2200.66,323.34,2200.42,321.85,2198.63
			L321.85,2198.63z"/>
		<path class="st3" d="M737.33,2351.78c-96.85,6.16-172.39-12.22-164.88-130c5.42-85.17,66.94-128.85,150.82-116.63
			c66.34,9.69,93.72,49.69,96.9,113.95c2.24,44.97,2.68,89.99,1.39,135.07c-1.84,65.89-21.42,111.11-95.51,114.1
			c-33.74,1.34-67.58,1.39-101.62,0.15c-2.43-0.1-3.68-1.39-3.68-3.83l0.25-61.62c0-1.99,1.59-3.58,3.58-3.58
			c24.8,0,49.94,0,75.48,0c27.23,0.05,41.34-14.16,42.39-42.64C742.6,2353.22,740.86,2351.53,737.33,2351.78 M652.01,2248.12
			c5.27,41.64,59.38,36.28,87.61,35.68c1.24,0,1.89-0.6,1.99-1.79c1.94-24.1,7.16-92.73-21.42-104.06
			C666.42,2156.69,646.49,2204.84,652.01,2248.12L652.01,2248.12z"/>
		<path class="st3" d="M485.14,2462.56c0,2.72-2.24,4.9-4.93,4.91l-64.7-0.11c-2.72,0.01-4.91-2.23-4.91-4.93l0.1-58.14
			c0-2.72,2.24-4.9,4.93-4.91l64.7,0.11c2.72-0.01,4.91,2.23,4.91,4.93L485.14,2462.56L485.14,2462.56z"/>
		<path class="st3" d="M1404.36,2464.28c0,2.64-2.13,4.78-4.79,4.75l-72.45-0.25c-2.61-0.02-4.75-2.16-4.75-4.79l0.2-58.74
			c0-2.64,2.13-4.78,4.79-4.75l72.45,0.25c2.61,0.02,4.75,2.16,4.75,4.79L1404.36,2464.28L1404.36,2464.28z"/>
	</g>
</g>
</svg>
