<svg id="Layer_1" data-name="Layer 1" xmlns="http://www.w3.org/2000/svg" viewBox="0 0 1953.63 1348.52"><defs><style>.cls-1{fill:#fff;}</style></defs><path class="cls-1" d="M678.88,148.89,554,274.07A17.62,17.62,0,0,0,548.68,287V593a16.35,16.35,0,0,1-4.77,11.48l-34.79,34.69a3.4,3.4,0,0,1-5.81-2.39q-1.12-180.46-.45-362.61c0-12.17,5.91-18.49,13.81-26.39Q619.9,144.55,723.34,42.5c1.19-1.14,1.79-.89,1.79.8l0,297.81a6.19,6.19,0,0,0,1.84,4.52L913.32,532a5.81,5.81,0,0,1,1.74,4.22l.3,70.07a2.4,2.4,0,0,1-2.73,2.73H875.11a4,4,0,0,1-4-4.07l.45-48a6.3,6.3,0,0,0-1.94-4.82L727.77,409.44c-2-2-3-1.64-3,1.24l1,112.21c0,2.29-.84,2.63-2.48,1l-40.8-38.76a6.58,6.58,0,0,1-2.14-5V149.49c0-1.45-.48-1.65-1.48-.6Z" transform="translate(-47.3 -41.81)"/><path class="cls-1" d="M851.47,284.35,852,420c0,6.46-2.24,7.4-6.81,2.83L806.6,384.23a6.35,6.35,0,0,1-1.89-4.52l-.3-203c0-2,.7-2.29,2.14-.84l224.22,223.67a12.64,12.64,0,0,1,3.68,8.89v407a4.23,4.23,0,0,1-4.72,4.22c-14-1.54-24.75-7.65-32.2-18.44q-6.25-9-6.41-25.79-1.12-177-1.64-354a4.94,4.94,0,0,0-1.49-3.63L853.67,283.45c-1.46-1.43-2.2-1.14-2.2.9Z" transform="translate(-47.3 -41.81)"/><path class="cls-1" d="M476.18,411.91,476,469.16a1.4,1.4,0,0,1-.45,1l-54.41,54.51a1.43,1.43,0,0,0-.45,1V727a1.4,1.4,0,0,1-.45,1l-40.7,41.39a1.49,1.49,0,0,1-2.53-1l.2-259.8a1.4,1.4,0,0,1,.45-1l96-96.7a1.48,1.48,0,0,1,2.53,1.05Z" transform="translate(-47.3 -41.81)"/><path class="cls-1" d="M859.27,698.24V643.58c0-3.73,3.24-6.08,7-6,18.24.31,35.32.28,52.72.35,1.65,0,2.43.5,2.43,2.14V762.65a5.86,5.86,0,0,0,1.79,4.27l78.32,78a12.11,12.11,0,0,0,8.55,3.53l170,.5a3.79,3.79,0,0,1,3.78,3.83l-.45,55.71a2.14,2.14,0,0,1-2.43,2.43H988.47a19.78,19.78,0,0,1-14-5.81L677,606.18c-3.13-3.13-6.26-3.13-9.44,0L364.87,909a6.15,6.15,0,0,1-4.52,1.89H165.6a2.34,2.34,0,0,1-2.63-2.63l-.55-56.7a2.3,2.3,0,0,1,2.58-2.63q83.85-.52,167.52,0,8.43.07,16.1-7.6,161.67-161.09,318.58-319c4.22-4.27,8.5-4.27,12.72,0l175.91,177.4a2,2,0,0,0,3.44-1.45Z" transform="translate(-47.3 -41.81)"/><path class="cls-1" d="M675.5,642.19l170.75,170.2c1.44,1.39,1.14,1.89-.8,1.49a6.77,6.77,0,0,1-3.13-1.59L675.55,664.9c-1.79-1.59-3.58-1.59-5.42,0q-84.82,75.21-169.2,149.92a4.82,4.82,0,0,1-2.83.4,4.54,4.54,0,0,1,1.14-4.77L669.89,642.19a4,4,0,0,1,5.61,0Z" transform="translate(-47.3 -41.81)"/><path class="cls-1" d="M1721.44,700.08a4.65,4.65,0,0,1-4.62,4.62h-71.56a4.65,4.65,0,0,1-4.62-4.62V322.91a4.65,4.65,0,0,1,4.62-4.62h71.56a4.65,4.65,0,0,1,4.62,4.62V700.08Z" transform="translate(-47.3 -41.81)"/><path class="cls-1" d="M1911.47,405.87a3.09,3.09,0,0,1-3.09,3.08l-75.83-.13a3.09,3.09,0,0,1-3.08-3.09l.11-60.82a3.09,3.09,0,0,1,3.09-3.08l75.83.13a3.08,3.08,0,0,1,3.08,3.09l-.11,60.82Z" transform="translate(-47.3 -41.81)"/><path class="cls-1" d="M1362.61,436.92a5.13,5.13,0,0,1-5.08,5.15l-58.84.41a5.08,5.08,0,0,1-5.15-5.08l-.4-57.84a5.13,5.13,0,0,1,5.08-5.15l58.84-.41a5.08,5.08,0,0,1,5.15,5.08l.4,57.84Z" transform="translate(-47.3 -41.81)"/><path class="cls-1" d="M1450.42,437.4a4.78,4.78,0,0,1-4.76,4.78l-60.13.1a4.78,4.78,0,0,1-4.78-4.76l-.1-58.44a4.78,4.78,0,0,1,4.76-4.78l60.13-.1a4.78,4.78,0,0,1,4.78,4.76l.1,58.44Z" transform="translate(-47.3 -41.81)"/><path class="cls-1" d="M1793.3,462.65c-.15-4.22,1.89-6.31,6.11-6.36q52.77-.37,104.6.25c102.22,1.29,100.23,88.75,95,163.24-3.33,47-18.73,84.08-70.32,84.53q-76.77.68-152.81.25a4.75,4.75,0,0,1-4.72-4.72V638.92a2.51,2.51,0,0,1,2.43-2.48q57-1.94,113.1-1.34c37.62.45,31.36-49.54,29.42-73-4-48-73.25-38.81-117.57-36.82a3.25,3.25,0,0,1-3.43-3.13l-1.77-59.5Z" transform="translate(-47.3 -41.81)"/><path class="cls-1" d="M1505.28,611.43V469.85a3.76,3.76,0,0,1,3.73-3.73h74.54c2.78,0,4.07,1.39,3.88,4.12-2.78,39.66.1,86.27-.45,118-.65,35.28,7.21,90.64-29.42,109.23q-13.93,7.08-51.58,7.11-143.26.07-286.43.1-59.92,0-61.37-61.92-1.64-69-.45-138.15a2.29,2.29,0,0,1,2.58-2.53l75.09-.45a2.86,2.86,0,0,1,2.83,2.83q-.23,50.46.35,100.68c.3,23.65,7.55,30,31.26,30q106.59-.07,211.79,0,23.63,0,23.65-23.64Z" transform="translate(-47.3 -41.81)"/><path class="cls-1" d="M793.62,1260.27c2.83,99.34-43.43,136.31-138.74,128.41a3.36,3.36,0,0,1-3.08-3.38v-62a3,3,0,0,1,2.88-3.28c6.86-.75,13.37-1.19,19.48-1.34,31.41-.65,36.87-22.41,37.22-49.1q1.41-117,1.44-234a1.68,1.68,0,0,1,1.69-1.69h76.18a2.11,2.11,0,0,1,2.39,2.29q2.24,65.07,1.29,129.55c-.35,23.55,13.17,36.67,36.33,36.82q141.63.83,283.25.5c17.84,0,18.39-31.51,18.49-44.57q.38-60.68.1-120.56a3.94,3.94,0,0,1,4-4h74.14a2.54,2.54,0,0,1,2.53,2.53q.45,58.66.15,116.83c-.15,26.64,4.17,49.25,34.79,49.64q143.64,1.86,497.48-.2c18.19-.1,28.13-6.91,28.13-25.64q.15-144.39-.25-288.32a2.67,2.67,0,0,1,2.68-2.68h75.43a2.14,2.14,0,0,1,2.43,2.43q1.2,229.29,0,322.91c-.7,53.37-34.34,61.07-81.5,61.07q-257.31-.07-514.42-.25-31.53,0-50.84-23.36c-1.09-1.29-2.19-1.29-3.28,0q-19.9,23.18-56.5,23.31-157.2.52-314.31.15-16.09-.07-35.78-14a2.4,2.4,0,0,0-3.78,2Z" transform="translate(-47.3 -41.81)"/><path class="cls-1" d="M1994.76,1269a3.35,3.35,0,0,1-3.38,3.38h-73.94a3.35,3.35,0,0,1-3.38-3.38V889.41a3.35,3.35,0,0,1,3.38-3.38h73.94a3.35,3.35,0,0,1,3.38,3.38V1269Z" transform="translate(-47.3 -41.81)"/><path class="cls-1" d="M130.72,1118.85,93.9,1074.33a2.56,2.56,0,0,1,.15-3.88q66.86-66.42,157.83-40.2c61.37,17.64,82.34,67,86.37,126,3.78,54.71-12.13,114.39-79.41,115.29-22.61.3-106.44-4.17-121.5,7-12.87,9.54-11.28,37.07,8.85,39.51a274.81,274.81,0,0,0,50,1.29,5.54,5.54,0,0,1,5.86,5.57v60.53a2.65,2.65,0,0,1-2.73,3c-81.94,7.6-162.15-2.29-151-110,9.29-89.7,98.24-73.1,162.45-75.19,26.83-.84,42.44-3.93,43.23-33.84,2.19-86.61-61.37-93.08-117.38-49.79a4.32,4.32,0,0,1-5.92-.66Z" transform="translate(-47.3 -41.81)"/><path class="cls-1" d="M546.2,1272c-96.85,6.16-172.39-12.22-164.88-130,5.42-85.17,66.94-128.85,150.82-116.63,66.34,9.69,93.72,49.69,96.9,114q3.36,67.46,1.39,135.07c-1.84,65.89-21.42,111.11-95.51,114.1q-50.61,2-101.62.15c-2.43-.1-3.68-1.39-3.68-3.83l.25-61.62a3.56,3.56,0,0,1,3.58-3.58h75.48q40.84.08,42.39-42.64c.15-3.53-1.59-5.22-5.12-5m-85.32-103.66c5.27,41.64,59.38,36.28,87.61,35.68a1.76,1.76,0,0,0,2-1.79c1.94-24.1,7.16-92.73-21.42-104.06-53.77-21.26-73.7,26.89-68.18,70.17Z" transform="translate(-47.3 -41.81)"/><path class="cls-1" d="M294,1382.78a4.94,4.94,0,0,1-4.93,4.91l-64.7-.11a4.92,4.92,0,0,1-4.91-4.93l.1-58.14a4.94,4.94,0,0,1,4.93-4.91l64.7.11a4.92,4.92,0,0,1,4.91,4.93l-.1,58.14Z" transform="translate(-47.3 -41.81)"/><path class="cls-1" d="M1213.23,1384.5a4.73,4.73,0,0,1-4.79,4.75L1136,1389a4.8,4.8,0,0,1-4.75-4.79l.2-58.74a4.73,4.73,0,0,1,4.79-4.75l72.45.25a4.8,4.8,0,0,1,4.75,4.79l-.2,58.74Z" transform="translate(-47.3 -41.81)"/></svg>